<svg xmlns="http://www.w3.org/2000/svg" viewBox="0 0 885 799" width="885" height="799">
	<defs>
		<radialGradient id="grd1" gradientUnits="userSpaceOnUse"  cx="442.5" cy="400" r="400">
			<stop offset="0" stop-color="#119efe"  />
			<stop offset="1" stop-color="#054afa"  />
		</radialGradient>
		<clipPath clipPathUnits="userSpaceOnUse" id="cp1">
			<path d="M0 0L885 0L885 800L0 800L0 0Z" />
		</clipPath>
	</defs>
	<style>
		tspan { white-space:pre }
		.shp0 { fill: #054afa } 
		.shp1 { opacity: 0.302;fill: url(#grd1) } 
		.shp2 { fill: #053ff9 } 
		.shp3 { fill: #ffcb5b } 
		.shp4 { fill: #002144 } 
		.shp5 { fill: #ffffff } 
		.shp6 { fill: #f9bc00 } 
		.shp7 { fill: #3d73ff } 
		.shp8 { fill: #0f296b } 
		.shp9 { fill: none;stroke: #e6eaf5;stroke-width: 6 } 
		.shp10 { fill: none;stroke: #e6eaf5;stroke-width: 6;stroke-dasharray: 18 } 
		.shp11 { fill: #cdd6eb } 
		.shp12 { fill: #fff5fe } 
		.shp13 { fill: #ecbfbb } 
		.shp14 { fill: #fe99b7 } 
		.shp15 { fill: #71cfd2 } 
		.shp16 { fill: #f0ecf8 } 
		.shp17 { fill: none;stroke: #cdd6eb;stroke-width: 6 } 
		.shp18 { fill: #eb5928 } 
		.shp19 { fill: #ffa182 } 
		.shp20 { fill: #f2d888 } 
		.shp21 { fill: #064ffa } 
		.shp22 { opacity: 0.302;fill: none;stroke: #cdd6eb;stroke-width: 6 } 
		.shp23 { fill: none;stroke: #c5e7e8;stroke-width: 6 } 
		.shp24 { fill: none;stroke: #e7ecf3;stroke-width: 6 } 
		.shp25 { fill: #e6eaf5 } 
		.shp26 { fill: #5887ff } 
		.shp27 { fill: #1442d4 } 
		.shp28 { fill: #0a32af } 
		.shp29 { fill: #1442d5 } 
		.shp30 { fill: #edccc9 } 
		.shp31 { fill: #ffa319 } 
		.shp32 { fill: #ffa31a } 
		.shp33 { fill: #2fdb82 } 
		.shp34 { fill: #0e3189 } 
		.shp35 { fill: #7bd4da } 
		.shp36 { fill: #49c2ca } 
		.shp37 { fill: none;stroke: #ffa302;stroke-width: 3 } 
		.shp38 { fill: #abc3ff } 
	</style>
	<path id="Layer" class="shp0" d="M0 0L885 0L885 800L0 800L0 0Z" />
	<path id="Layer" class="shp1" d="M0 0L885 0L885 800L0 800L0 0Z" />
	<g id="Clip-Path" clip-path="url(#cp1)">
		<g id="Layer">
			<path id="Layer" class="shp2" d="M332.63 222.78C241.6 259.42 136.65 329.64 93.53 378.17C32.6 446.75 63.08 497.5 136.71 505.72C245.91 517.92 117.93 598.05 159.79 682.05C197.74 758.22 348.63 768.71 549.23 646.81C772.16 511.34 854.96 314.31 815.54 242.04C759.52 139.29 548.71 135.79 332.63 222.78Z" />
			<path id="Layer" class="shp3" d="M360.02 152.43C360.02 152.43 350.7 140.4 348.59 131.83C346.49 123.26 349.97 113.48 358.16 113.03C358.16 113.03 361.58 103.45 375.86 104.06C390.15 104.66 402.29 112.73 404.84 120.4C407.4 128.07 403.79 130.97 396.12 131.33C388.44 131.68 360.02 152.43 360.02 152.43Z" />
			<path id="Layer" class="shp4" d="M358.15 157.7C358.15 157.7 335.06 154.18 313.1 164.42C291.14 174.65 315.5 246.43 315.5 246.43L381.97 246.43C381.97 246.43 405.14 194.09 403.93 179.66C402.73 165.21 358.15 157.7 358.15 157.7Z" />
			<path id="Layer" class="shp5" d="M354.38 157.11C354.38 157.11 350.07 162.38 352.95 169.32C355.83 176.26 362.9 179.93 370.24 178.09C377.57 176.26 381.5 164.6 378.75 164.47C376 164.34 358.15 157.69 358.15 157.69L354.38 157.11Z" />
			<path id="Layer" class="shp4" d="M315.88 193.68C315.88 193.68 318.24 209.13 327.41 213.06C336.57 216.99 344.5 221.22 350.98 228.85C357.46 236.49 370.63 232.46 374.03 241.1C377.44 249.73 313.81 241.1 313.81 241.1C313.81 241.1 305.49 209.33 304.93 201.77C304.36 194.2 315.88 193.68 315.88 193.68Z" />
			<path id="Layer" class="shp6" d="M191.89 210.57C203.82 210.57 213.49 200.9 213.49 188.97C213.49 177.04 203.82 167.37 191.89 167.37C179.97 167.37 170.29 177.04 170.29 188.97C170.29 200.9 179.97 210.57 191.89 210.57Z" />
			<path id="Layer" class="shp5" d="M194.4 191.35C195.01 192.34 195.8 193.06 197.21 193.06C198.39 193.06 199.15 192.48 199.15 191.68C199.15 190.71 198.37 190.37 197.07 189.81L196.36 189.51C194.3 188.64 192.93 187.56 192.93 185.27C192.93 183.16 194.56 181.56 197.11 181.56C198.92 181.56 200.22 182.18 201.16 183.81L198.94 185.21C198.45 184.35 197.93 184.01 197.11 184.01C196.27 184.01 195.74 184.53 195.74 185.21C195.74 186.06 196.27 186.4 197.5 186.92L198.21 187.22C200.63 188.25 202 189.29 202 191.64C202 194.17 199.98 195.56 197.27 195.56C194.63 195.56 192.91 194.31 192.08 192.68L194.4 191.35ZM184.32 191.6C184.77 192.38 185.18 193.04 186.16 193.04C187.09 193.04 187.69 192.68 187.69 191.28L187.69 181.72L190.54 181.72L190.54 191.31C190.54 194.23 188.81 195.55 186.28 195.55C184 195.55 182.67 194.39 182 192.98L184.32 191.6Z" />
			<path id="Layer" class="shp7" d="M523.39 196.01C521.86 196.01 520.42 196.61 519.34 197.7C518.28 198.78 517.7 200.21 517.71 201.73C517.72 203.24 518.32 204.66 519.4 205.73C520.47 206.78 521.89 207.36 523.38 207.36C524.92 207.36 526.35 206.76 527.43 205.67C528.5 204.59 529.07 203.16 529.07 201.64C529.05 200.12 528.45 198.7 527.37 197.63C526.31 196.59 524.89 196.01 523.39 196.01Z" />
			<path id="Layer" class="shp7" d="M521.47 183.42C520.16 183.42 518.84 183.54 517.55 183.8C517.01 183.9 516.55 184.22 516.25 184.67C515.94 185.13 515.83 185.67 515.94 186.21C516.02 186.62 516.21 186.98 516.51 187.27C516.99 187.75 517.69 187.96 518.35 187.82C519.38 187.62 520.43 187.52 521.47 187.52C525.72 187.52 529.74 189.16 532.77 192.16C536.57 195.9 538.28 201.27 537.33 206.52C537.23 207.06 537.35 207.6 537.66 208.05C537.97 208.5 538.44 208.81 538.98 208.9C539.1 208.92 539.22 208.94 539.35 208.94C540.34 208.94 541.18 208.23 541.36 207.25C542.55 200.66 540.41 193.93 535.65 189.24C531.84 185.48 526.8 183.42 521.47 183.42Z" />
			<path id="Layer" class="shp7" d="M521.51 172.58C520.21 172.58 518.9 172.66 517.61 172.82C517.07 172.89 516.58 173.16 516.25 173.6C515.91 174.03 515.76 174.57 515.83 175.11C515.97 176.22 516.99 177.03 518.12 176.89C519.24 176.75 520.38 176.68 521.5 176.68C528.59 176.68 535.3 179.44 540.38 184.43C546.28 190.25 549.16 198.32 548.25 206.57C548.18 207.2 548.4 207.81 548.86 208.26C549.19 208.59 549.61 208.79 550.07 208.84C550.14 208.85 550.22 208.85 550.29 208.85C551.34 208.85 552.21 208.07 552.33 207.03C553.37 197.52 550.06 188.22 543.25 181.52C537.4 175.75 529.68 172.58 521.51 172.58Z" />
			<path id="Layer" class="shp7" d="M550.18 174.48C542.47 166.9 532.28 162.72 521.48 162.72C520.19 162.72 518.88 162.78 517.59 162.9C517.05 162.95 516.56 163.21 516.21 163.64C515.86 164.06 515.69 164.59 515.75 165.13C515.79 165.61 516 166.06 516.35 166.4C516.78 166.83 517.37 167.04 517.98 166.98C519.14 166.87 520.32 166.82 521.48 166.82C531.19 166.82 540.36 170.58 547.3 177.4C555.07 185.06 559.03 195.68 558.17 206.56C558.08 207.68 558.92 208.67 560.05 208.76C560.1 208.77 560.16 208.77 560.21 208.77C561.27 208.77 562.17 207.94 562.25 206.88C563.22 194.8 558.82 182.99 550.18 174.48Z" />
			<path id="Layer" class="shp8" d="M686.5 606.3L153.48 606.3C144.72 606.3 137.62 599.2 137.62 590.43L137.62 254.96C137.62 246.2 144.72 239.1 153.48 239.1L686.5 239.1C695.26 239.1 702.37 246.2 702.37 254.96L702.37 590.44C702.37 599.2 695.27 606.3 686.5 606.3Z" />
			<path id="Layer" class="shp5" d="M694.38 256.35L694.38 589.05C694.38 594.29 690.12 598.56 684.87 598.56L155.11 598.56C149.87 598.56 145.61 594.29 145.61 589.05L145.61 256.35C145.61 251.11 149.87 246.85 155.11 246.85L684.87 246.85C690.12 246.85 694.38 251.11 694.38 256.35Z" />
			<g id="Layer" style="opacity: 0.502">
				<path id="Layer" class="shp9" d="M347.96 448.18L347.96 443.8L343.58 443.8" />
				<path id="Layer" class="shp10" d="M335.13 443.8L204.11 443.8" />
				<path id="Layer" class="shp9" d="M199.89 443.8L195.51 443.8L195.51 448.18" />
				<path id="Layer" class="shp10" d="M195.51 456.74L195.51 538.05" />
				<path id="Layer" class="shp9" d="M195.51 542.33L195.51 546.71L199.89 546.71" />
				<path id="Layer" class="shp10" d="M208.34 546.71L339.36 546.71" />
				<path id="Layer" class="shp9" d="M343.58 546.71L347.96 546.71L347.96 542.33" />
				<path id="Layer" class="shp10" d="M347.96 533.77L347.96 452.46" />
			</g>
			<path id="Layer" class="shp11" d="M694.38 256.35L694.38 271.84L145.61 271.84L145.61 256.35C145.61 251.11 149.87 246.85 155.11 246.85L684.87 246.85C690.12 246.85 694.38 251.11 694.38 256.35Z" />
			<path id="Layer" class="shp12" d="M169.26 260.32C169.79 258.06 168.4 255.8 166.14 255.27C163.88 254.73 161.62 256.13 161.08 258.38C160.55 260.64 161.94 262.9 164.2 263.44C166.46 263.98 168.72 262.58 169.26 260.32Z" />
			<path id="Layer" class="shp12" d="M189.9 260.32C190.43 258.07 189.04 255.8 186.78 255.27C184.52 254.73 182.26 256.13 181.72 258.39C181.19 260.64 182.58 262.91 184.84 263.44C187.1 263.98 189.36 262.58 189.9 260.32Z" />
			<path id="Layer" class="shp12" d="M209.25 263.06C211.3 261.99 212.1 259.45 211.03 257.39C209.96 255.33 207.42 254.53 205.36 255.61C203.31 256.68 202.51 259.22 203.58 261.27C204.65 263.33 207.19 264.13 209.25 263.06Z" />
			<path id="Layer" class="shp13" d="M362.33 145.36L355.36 159.2C355.36 159.2 351.15 168.22 360.17 174.39C369.19 180.56 378.22 169.43 380.17 162.66C382.13 155.89 362.33 145.36 362.33 145.36Z" />
			<path id="Layer" class="shp11" d="M662.29 321.06L177.69 321.06C172.57 321.06 168.42 316.9 168.42 311.78L168.42 303.9C168.42 298.78 172.57 294.63 177.69 294.63L662.29 294.63C667.42 294.63 671.57 298.78 671.57 303.9L671.57 311.78C671.57 316.9 667.42 321.06 662.29 321.06Z" />
			<path id="Layer" class="shp14" d="M186.91 312.38C189.42 312.38 191.46 310.35 191.46 307.84C191.46 305.33 189.42 303.3 186.91 303.3C184.4 303.3 182.37 305.33 182.37 307.84C182.37 310.35 184.4 312.38 186.91 312.38Z" />
			<path id="Layer" class="shp15" d="M209.23 312.38C211.74 312.38 213.77 310.35 213.77 307.84C213.77 305.33 211.74 303.3 209.23 303.3C206.72 303.3 204.69 305.33 204.69 307.84C204.69 310.35 206.72 312.38 209.23 312.38Z" />
			<path id="Layer" class="shp3" d="M232.47 312.38C234.98 312.38 237.01 310.35 237.01 307.84C237.01 305.33 234.98 303.3 232.47 303.3C229.96 303.3 227.93 305.33 227.93 307.84C227.93 310.35 229.96 312.38 232.47 312.38Z" />
			<path id="Layer" class="shp16" d="M641.12 316.16C640.69 316.16 640.25 316 639.92 315.67C639.25 315 639.25 313.93 639.92 313.26L653.17 300.01C653.84 299.35 654.91 299.35 655.58 300.01C656.24 300.67 656.24 301.75 655.58 302.42L642.33 315.67C641.99 316 641.56 316.16 641.12 316.16Z" />
			<path id="Layer" class="shp16" d="M654.37 316.16C653.94 316.16 653.5 316 653.17 315.67L639.92 302.42C639.25 301.75 639.25 300.68 639.92 300.01C640.59 299.35 641.66 299.35 642.33 300.01L655.58 313.26C656.24 313.92 656.24 315 655.58 315.67C655.24 316 654.8 316.16 654.37 316.16Z" />
			<path id="Layer" class="shp16" d="M626.64 315.96L613.39 315.96C612.46 315.96 611.7 315.2 611.7 314.26C611.7 313.32 612.46 312.56 613.39 312.56L626.64 312.56C627.58 312.56 628.34 313.32 628.34 314.26C628.34 315.2 627.58 315.96 626.64 315.96Z" />
			<path id="Layer" class="shp17" d="M664.98 586.5L175.01 586.5C171.37 586.5 168.42 583.55 168.42 579.9L168.42 340.46C168.42 336.81 171.37 333.86 175.01 333.86L664.98 333.86C668.62 333.86 671.58 336.81 671.58 340.46L671.58 579.9C671.57 583.55 668.62 586.5 664.98 586.5Z" />
			<path id="Layer" class="shp6" d="M413.89 421.19L199.89 421.19C196.51 421.19 193.78 418.46 193.78 415.09L193.78 366.85C193.78 363.48 196.51 360.74 199.89 360.74L413.89 360.74C417.26 360.74 419.99 363.48 419.99 366.85L419.99 415.09C419.99 418.46 417.26 421.19 413.89 421.19Z" />
			<path id="Layer" class="shp18" d="M532.35 421.19L449.23 421.19C447.09 421.19 445.36 419.46 445.36 417.32L445.36 364.61C445.36 362.48 447.09 360.74 449.23 360.74L532.35 360.74C534.48 360.74 536.22 362.48 536.22 364.61L536.22 417.32C536.22 419.46 534.48 421.19 532.35 421.19Z" />
			<path id="Layer" class="shp12" d="M244.67 393.49C246.07 384.25 239.72 375.62 230.47 374.21C221.23 372.81 212.6 379.16 211.2 388.4C209.8 397.64 216.15 406.27 225.39 407.68C234.63 409.08 243.26 402.73 244.67 393.49Z" />
			<path id="Layer" class="shp12" d="M363.6 377.78L298.71 377.78C297.68 377.78 296.84 376.95 296.84 375.91C296.84 374.88 297.68 374.04 298.71 374.04L363.6 374.04C364.63 374.04 365.47 374.88 365.47 375.91C365.47 376.95 364.63 377.78 363.6 377.78Z" />
			<path id="Layer" class="shp12" d="M399.56 377.78L375.73 377.78C374.7 377.78 373.86 376.95 373.86 375.91C373.86 374.88 374.7 374.04 375.73 374.04L399.56 374.04C400.59 374.04 401.43 374.88 401.43 375.91C401.43 376.95 400.59 377.78 399.56 377.78Z" />
			<path id="Layer" class="shp19" d="M483.75 377.78L459.93 377.78C458.9 377.78 458.06 376.95 458.06 375.91C458.06 374.88 458.9 374.04 459.93 374.04L483.75 374.04C484.79 374.04 485.62 374.88 485.62 375.91C485.62 376.95 484.79 377.78 483.75 377.78Z" />
			<path id="Layer" class="shp12" d="M522.26 377.78L493.72 377.78C492.69 377.78 491.85 376.95 491.85 375.91C491.85 374.88 492.69 374.04 493.72 374.04L522.26 374.04C523.3 374.04 524.13 374.88 524.13 375.91C524.13 376.95 523.3 377.78 522.26 377.78Z" />
			<path id="Layer" class="shp12" d="M286.01 377.78L265.39 377.78C264.36 377.78 263.52 376.95 263.52 375.91C263.52 374.88 264.36 374.04 265.39 374.04L286.01 374.04C287.04 374.04 287.88 374.88 287.88 375.91C287.88 376.95 287.04 377.78 286.01 377.78Z" />
			<path id="Layer" class="shp12" d="M310.36 392.84L265.39 392.84C264.36 392.84 263.52 392 263.52 390.97C263.52 389.93 264.36 389.1 265.39 389.1L310.36 389.1C311.39 389.1 312.23 389.93 312.23 390.97C312.23 392 311.39 392.84 310.36 392.84Z" />
			<path id="Layer" class="shp12" d="M504.9 392.84L459.93 392.84C458.9 392.84 458.06 392 458.06 390.97C458.06 389.93 458.9 389.1 459.93 389.1L504.9 389.1C505.93 389.1 506.77 389.93 506.77 390.97C506.77 392 505.93 392.84 504.9 392.84Z" />
			<path id="Layer" class="shp19" d="M522.26 392.84L513.73 392.84C512.7 392.84 511.86 392 511.86 390.97C511.86 389.93 512.7 389.1 513.73 389.1L522.26 389.1C523.3 389.1 524.13 389.93 524.13 390.97C524.13 392 523.3 392.84 522.26 392.84Z" />
			<path id="Layer" class="shp12" d="M399.56 407.9L342.98 407.9C341.94 407.9 341.11 407.06 341.11 406.03C341.11 404.99 341.94 404.15 342.98 404.15L399.56 404.15C400.59 404.15 401.43 404.99 401.43 406.03C401.43 407.06 400.59 407.9 399.56 407.9Z" />
			<path id="Layer" class="shp12" d="M522.26 407.9L459.93 407.9C458.9 407.9 458.06 407.06 458.06 406.03C458.06 404.99 458.9 404.15 459.93 404.15L522.26 404.15C523.3 404.15 524.13 404.99 524.13 406.03C524.13 407.06 523.3 407.9 522.26 407.9Z" />
			<path id="Layer" class="shp12" d="M399.56 392.84L324.15 392.84C323.12 392.84 322.28 392 322.28 390.97C322.28 389.93 323.12 389.1 324.15 389.1L399.56 389.1C400.59 389.1 401.43 389.93 401.43 390.97C401.43 392 400.59 392.84 399.56 392.84Z" />
			<path id="Layer" class="shp20" d="M330.28 407.9L265.39 407.9C264.36 407.9 263.52 407.06 263.52 406.03C263.52 404.99 264.36 404.15 265.39 404.15L330.28 404.15C331.31 404.15 332.15 404.99 332.15 406.03C332.14 407.06 331.31 407.9 330.28 407.9Z" />
			<g id="Layer" style="opacity: 0.502">
				<path id="Layer" fill-rule="evenodd" class="shp11" d="M420.87 464.85L424.6 464.85L424.6 537.07L420.87 537.07L420.87 464.85ZM529.56 537.06L525.83 537.06L525.83 469.81L529.56 469.81L529.56 537.06ZM503.42 537.07L499.69 537.07L499.69 510.89L503.42 510.89L503.42 537.07ZM477.83 475.86L481.56 475.86L481.56 537.07L477.83 537.07L477.83 475.86ZM452.1 537.07L448.38 537.07L448.38 498.51L452.1 498.51L452.1 537.07ZM403.29 537.07L399.56 537.07L399.56 484.72L403.29 484.72L403.29 537.07ZM371.27 504.59L375 504.59L375 537.07L371.27 537.07L371.27 504.59Z" />
			</g>
			<path id="Layer" class="shp21" d="M401.43 510.89C405.76 510.89 409.28 507.38 409.28 503.04C409.28 498.7 405.76 495.19 401.43 495.19C397.09 495.19 393.57 498.7 393.57 503.04C393.57 507.38 397.09 510.89 401.43 510.89Z" />
			<path id="Layer" class="shp21" d="M455.78 521.68C458.85 518.62 458.85 513.64 455.79 510.58C452.72 507.51 447.75 507.51 444.68 510.58C441.61 513.64 441.61 518.62 444.68 521.68C447.75 524.75 452.72 524.75 455.78 521.68Z" />
			<path id="Layer" class="shp21" d="M482.72 502.44C486.73 500.78 488.63 496.18 486.97 492.18C485.31 488.17 480.72 486.27 476.71 487.93C472.71 489.59 470.8 494.18 472.46 498.19C474.12 502.19 478.72 504.1 482.72 502.44Z" />
			<path id="Layer" class="shp21" d="M535.35 492.51C536.35 488.29 533.74 484.06 529.51 483.06C525.29 482.07 521.06 484.68 520.07 488.9C519.07 493.12 521.68 497.35 525.9 498.35C530.13 499.35 534.36 496.73 535.35 492.51Z" />
			<path id="Layer" class="shp22" d="M606.4 443.43C629.24 443.43 647.75 424.92 647.75 402.09C647.75 379.25 629.24 360.74 606.4 360.74C583.57 360.74 565.06 379.25 565.06 402.09C565.06 424.92 583.57 443.43 606.4 443.43Z" />
			<path id="Layer" class="shp23" d="M606.4 406.86C609.04 406.86 611.18 404.73 611.18 402.09C611.18 399.45 609.04 397.31 606.4 397.31C603.77 397.31 601.63 399.45 601.63 402.09C601.63 404.73 603.77 406.86 606.4 406.86Z" />
			<path id="Layer" class="shp24" d="M609.21 398.23L635.51 372.59" />
			<path id="Layer" class="shp11" d="M649.45 402.09L646.05 402.09C646.05 380.23 628.26 362.44 606.4 362.44L606.4 359.05C630.13 359.05 649.45 378.35 649.45 402.09Z" />
			<g id="Layer" style="opacity: 0.6">
				<path id="Layer" class="shp25" d="M605.23 519.57C607.89 519.57 610.05 517.41 610.05 514.75C610.05 512.08 607.89 509.92 605.23 509.92C602.56 509.92 600.4 512.08 600.4 514.75C600.4 517.41 602.56 519.57 605.23 519.57Z" />
				<path id="Layer" class="shp25" d="M605.23 514.75L600.4 528.75L610.05 528.75L605.23 514.75Z" />
			</g>
			<path id="Layer" class="shp7" d="M724.22 286.42L605.58 286.42C600.76 286.42 596.85 282.51 596.85 277.69L596.85 204.52C596.85 199.69 600.76 195.79 605.58 195.79L724.22 195.79C729.04 195.79 732.94 199.69 732.94 204.52L732.94 277.69C732.94 282.51 729.03 286.42 724.22 286.42Z" />
			<path id="Layer" class="shp7" d="M728.73 286.42L610.09 286.42C605.27 286.42 601.36 282.51 601.36 277.69L601.36 204.52C601.36 199.69 605.27 195.79 610.09 195.79L728.73 195.79C733.55 195.79 737.46 199.69 737.46 204.52L737.46 277.69C737.46 282.51 733.55 286.42 728.73 286.42Z" />
			<path id="Layer" class="shp26" d="M610.09 281.18C608.17 281.18 606.6 279.61 606.6 277.69L606.6 204.52C606.6 202.59 608.17 201.03 610.09 201.03L728.73 201.03C730.66 201.03 732.22 202.59 732.22 204.52L732.22 277.69C732.22 279.62 730.65 281.18 728.73 281.18L610.09 281.18Z" />
			<path id="Layer" fill-rule="evenodd" class="shp11" d="M285.08 554.64L121.83 554.64C118.37 554.64 115.58 551.83 115.58 548.39L115.58 441.83C115.58 438.38 118.37 435.58 121.83 435.58L285.08 435.58C288.54 435.58 291.33 438.38 291.33 441.83L291.33 548.39C291.33 551.84 288.54 554.64 285.08 554.64ZM361.85 544.51L536.21 544.51L536.21 548.6L361.85 548.6L361.85 544.51Z" />
			<path id="Layer" class="shp27" d="M90.8 651.9L87.81 659.79L87.71 660.02L77.77 686.22L69.9 706.95C69.9 706.95 69.21 707.33 67.94 708.03C64.86 709.72 58.41 713.25 50.16 717.55C30.56 727.75 0.83 742.34 -17.62 747.14C-21.76 748.23 -25.34 748.8 -28.11 748.74C-50.48 748.15 -134.36 740.2 -134.36 740.2C-130.53 735.2 -131.12 719.59 -131.12 719.59C-131.12 719.59 -103.34 718.32 -83.29 717.06C-77.81 716.72 -72.92 716.38 -69.31 716.06C-52.54 714.59 -26.34 719.59 -26.34 719.59C-26.34 719.59 21.05 680.16 32.82 668.09C35.51 665.33 37.98 663 40.19 661.04C47.69 654.36 52.25 651.9 52.25 651.9L90.8 651.9L90.8 651.9Z" />
			<path id="Layer" class="shp28" d="M67.94 708.03C57.55 713.76 8.59 740.33 -17.62 747.15L53.74 691.22L67.94 708.03Z" />
			<path id="Layer" class="shp29" d="M114.64 692.82C112.95 698.86 110.95 705.44 108.75 712.29C95.94 752.14 76.34 801.02 72.75 805.55C68.52 810.85 -31.25 856.62 -31.25 856.62C-28.49 845.44 -39.69 841.75 -39.69 841.75C-39.69 841.75 -14.11 819.51 1.41 807.14C1.43 807.13 1.43 807.12 1.45 807.13C2.54 806.24 3.58 805.42 4.56 804.66C19.47 793.09 42.91 786.81 42.91 786.81C42.91 786.81 47.19 747.24 50.15 717.56C50.67 712.39 51.14 707.53 51.56 703.22C52.74 690.75 56.82 681.17 61.08 674.3C66.75 665.18 72.75 660.84 72.75 660.84C72.75 660.84 79.52 659.67 87.71 660.02C88.01 660.04 88.31 660.05 88.61 660.06L88.62 660.06C96.01 660.49 104.4 662.2 109.96 667.11C115.47 671.96 118.23 679.91 114.64 692.82Z" />
			<path id="Layer" class="shp28" d="M114.64 692.82C112.95 698.86 110.95 705.44 108.75 712.29C98.36 702.44 87.63 693.65 77.77 686.23C71.8 681.73 66.15 677.74 61.08 674.3C51.19 667.58 43.55 663 40.19 661.04C47.68 654.37 52.24 651.9 52.24 651.9L63.92 651.9L87.81 659.79L88.61 660.05L88.62 660.05L109.96 667.1C115.47 671.96 118.23 679.91 114.64 692.82Z" />
			<path id="Layer" class="shp30" d="M105.93 502.93C105.93 502.93 107.48 492.87 109.25 486.59C111.01 480.31 117.88 472.66 119.64 475.02C121.41 477.37 120.4 483.62 119.64 488.76C118.89 493.89 120.44 497.38 120.44 497.38C120.44 497.38 122 486.61 124.16 488.76C126.31 490.91 124.94 505.38 122.19 506.19C119.45 507 115.52 509.75 115.52 509.75L105.93 502.93Z" />
			<path id="Layer" class="shp6" d="M105.93 502.93C105.93 502.93 64.31 546.53 61.37 557.43C58.42 568.32 93.45 547.13 93.45 547.13L115.52 509.75L105.93 502.93Z" />
			<path id="Layer" class="shp31" d="M61.37 557.43C59.88 565.21 61.66 573.91 83.44 574.2C105.22 574.5 107.29 546.38 107.29 546.38C107.29 546.38 93.45 543.57 79.91 546.38C66.37 549.19 61.87 554.77 61.37 557.43Z" />
			<path id="Layer" class="shp5" d="M121.83 549.74C121.09 549.74 120.48 549.13 120.48 548.39L120.48 441.83C120.48 441.08 121.09 440.48 121.83 440.48L285.08 440.48C285.82 440.48 286.43 441.08 286.43 441.83L286.43 548.39C286.43 549.13 285.82 549.74 285.08 549.74L121.83 549.74Z" />
			<path id="Layer" class="shp11" d="M165.66 492.16L150.68 492.16L150.68 542.43L165.66 542.43L165.66 492.16Z" />
			<path id="Layer" class="shp11" d="M193.63 480.51L178.64 480.51L178.64 542.43L193.63 542.43L193.63 480.51Z" />
			<path id="Layer" class="shp11" d="M221.88 505.48L206.9 505.48L206.9 542.43L221.88 542.43L221.88 505.48Z" />
			<path id="Layer" class="shp11" d="M249.85 475.21L234.86 475.21L234.86 542.43L249.85 542.43L249.85 475.21Z" />
			<path id="Layer" class="shp11" d="M277.48 489.88L262.5 489.88L262.5 542.43L277.48 542.43L277.48 489.88Z" />
			<path id="Layer" class="shp21" d="M277.82 508.57L262.17 508.57C261.31 508.57 260.62 507.88 260.62 507.02C260.62 506.17 261.31 505.48 262.17 505.48L277.82 505.48C278.67 505.48 279.36 506.17 279.36 507.02C279.36 507.88 278.67 508.57 277.82 508.57Z" />
			<path id="Layer" class="shp4" d="M169.4 498.7C169.4 498.7 173.48 497.27 174.94 494.2C176.42 491.09 175.13 487.02 171.35 486.03C161.66 483.5 162.83 474.46 152.34 476.75C149.02 477.48 147.71 480.34 144.34 481.35C136.85 483.58 130.74 478.94 127.63 488.48C126.17 492.95 120.2 495.62 115.79 499.17C113.31 501.16 110.81 511.46 117.23 514.56C125.59 518.61 117.85 530.06 127.23 528.73C135.32 527.59 130.93 541.55 136.1 542.03C141.27 542.51 155.3 519.14 157.18 517.53C159.06 515.92 169.4 498.7 169.4 498.7Z" />
			<path id="Layer" class="shp30" d="M129.85 528.41L120.44 549.82L125.09 557.65L147.63 556.29L152.4 538.25C152.4 538.25 163.55 538.41 166.58 532.53C169.6 526.64 173.15 505.11 169.4 498.7C169.4 498.7 156.98 499.74 155.56 504.49C154.15 509.25 151.57 514.63 148.68 512.15C145.1 509.07 142.08 516.88 145.69 520.14C149.3 523.41 140.37 534.24 136.27 532.66C133.08 531.44 129.85 528.41 129.85 528.41Z" />
			<path id="Layer" class="shp13" d="M146.01 530.45C146.01 530.45 147.86 536.25 152.41 538.25L150.54 545.29C150.54 545.29 143.85 542 146.01 530.45Z" />
			<path id="Layer" class="shp6" d="M280.34 512.1C280.34 512.1 251.7 561.55 241.49 570.58C236.55 574.95 219.9 580.95 203.45 587.33C203.45 587.33 203.43 587.35 203.37 587.36C185.84 594.16 168.57 601.37 165.95 607.39C162.69 614.96 152.4 636.9 138.68 656.52C137.58 658.09 136.51 659.77 135.46 661.51C135.45 661.53 135.45 661.54 135.44 661.55C124.81 679.42 117.28 704.86 114.79 704.15C112.03 703.37 94.47 690.49 80.13 679.99C65.93 669.57 49 659.12 41.79 656.03C38.46 654.6 56.65 648.08 66.36 626C75.37 605.53 81.76 579.21 81.76 574.89C81.76 570.58 85.3 552.91 96.68 548.21C108.06 543.5 125.56 549.07 133.96 551.74C133.96 551.74 155.15 558.4 161.43 560.76C167.71 563.11 216.76 554.48 221.86 551.74C226.97 548.98 269.74 504.65 269.74 504.65L280.34 512.1Z" />
			<path id="Layer" class="shp30" d="M269.75 504.65C269.75 504.65 273.09 493.66 277.01 488.75C280.94 483.85 283.29 479.14 284.66 481.1C286.03 483.06 282.5 491.63 281.92 492.65C281.33 493.66 287.22 490.91 291.14 482.28C295.06 473.64 296.24 480.12 296.83 483.85C297.41 487.57 298 494.05 294.28 500.72C290.55 507.39 280.34 512.1 280.34 512.1L269.75 504.65Z" />
			<path id="Layer" class="shp32" d="M203.37 587.36C185.84 594.16 168.57 601.37 165.96 607.39C162.69 614.96 152.41 636.9 138.68 656.52C137.58 658.09 136.51 659.77 135.46 661.51C153.06 627.57 150.25 605.99 163.2 599.81C175.75 593.82 201.76 587.72 203.37 587.36Z" />
			<path id="Layer" class="shp28" d="M52.74 798.97C33.1 792.52 2.62 806.58 1.46 807.12C2.55 806.24 3.59 805.41 4.57 804.66C19.48 793.09 42.92 786.8 42.92 786.8L52.74 798.97Z" />
			<path id="Layer" class="shp11" d="M291.33 441.83L291.33 459.51L115.58 459.51L115.58 441.83C115.58 438.38 118.37 435.58 121.83 435.58L285.07 435.58C288.54 435.58 291.33 438.38 291.33 441.83Z" />
			<path id="Layer" class="shp12" d="M266.64 453.54C266.33 453.54 266.02 453.42 265.78 453.18C265.3 452.7 265.3 451.92 265.78 451.45L275.32 441.91C275.79 441.43 276.57 441.43 277.05 441.91C277.52 442.39 277.52 443.16 277.05 443.64L267.51 453.18C267.27 453.41 266.95 453.54 266.64 453.54Z" />
			<path id="Layer" class="shp12" d="M276.18 453.54C275.87 453.54 275.55 453.42 275.32 453.18L265.78 443.64C265.3 443.16 265.3 442.39 265.78 441.91C266.26 441.43 267.03 441.43 267.51 441.91L277.05 451.45C277.52 451.92 277.52 452.7 277.05 453.18C276.81 453.41 276.49 453.54 276.18 453.54Z" />
			<path id="Layer" class="shp12" d="M133.52 449.94C134.84 448.36 134.63 446 133.04 444.67C131.46 443.35 129.1 443.56 127.78 445.15C126.45 446.73 126.67 449.09 128.25 450.42C129.84 451.74 132.19 451.53 133.52 449.94Z" />
			<path id="Layer" class="shp12" d="M145.3 451C147.21 450.22 148.12 448.03 147.33 446.12C146.55 444.21 144.36 443.3 142.45 444.09C140.54 444.87 139.63 447.06 140.41 448.97C141.2 450.88 143.39 451.79 145.3 451Z" />
			<path id="Layer" class="shp12" d="M159.66 450.19C161.12 448.73 161.12 446.36 159.66 444.9C158.2 443.44 155.83 443.44 154.37 444.9C152.91 446.36 152.91 448.73 154.37 450.19C155.83 451.65 158.2 451.65 159.66 450.19Z" />
			<path id="Layer" class="shp21" d="M193.96 511.29L178.31 511.29C177.46 511.29 176.76 510.6 176.76 509.75C176.76 508.89 177.46 508.2 178.31 508.2L193.96 508.2C194.81 508.2 195.51 508.89 195.51 509.75C195.51 510.6 194.81 511.29 193.96 511.29Z" />
			<path id="Layer" class="shp21" d="M222.22 523.4L206.57 523.4C205.71 523.4 205.02 522.71 205.02 521.86C205.02 521 205.71 520.31 206.57 520.31L222.22 520.31C223.07 520.31 223.76 521 223.76 521.86C223.76 522.71 223.07 523.4 222.22 523.4Z" />
			<path id="Layer" class="shp21" d="M250.17 483.08L234.52 483.08C233.67 483.08 232.98 482.39 232.98 481.53C232.98 480.68 233.67 479.99 234.52 479.99L250.17 479.99C251.03 479.99 251.72 480.68 251.72 481.53C251.72 482.39 251.03 483.08 250.17 483.08Z" />
			<path id="Layer" class="shp12" d="M255.6 453.54L246.04 453.54C245.36 453.54 244.82 452.99 244.82 452.31C244.82 451.63 245.36 451.08 246.04 451.08L255.6 451.08C256.28 451.08 256.83 451.63 256.83 452.31C256.83 452.98 256.28 453.54 255.6 453.54Z" />
			<path id="Layer" class="shp33" d="M78.31 422.63C91.74 422.63 102.63 411.74 102.63 398.31C102.63 384.89 91.74 374 78.31 374C64.89 374 54 384.89 54 398.31C54 411.74 64.89 422.63 78.31 422.63Z" />
			<path id="Layer" fill-rule="evenodd" class="shp5" d="M76.77 405.54C72.91 405.54 69.77 402.4 69.77 398.54C69.77 394.68 72.91 391.54 76.77 391.54C79.26 391.54 81.58 392.88 82.83 395.04L79.8 396.79C79.18 395.71 78.01 395.04 76.77 395.04C74.84 395.04 73.27 396.61 73.27 398.54C73.27 400.47 74.84 402.04 76.77 402.04C78.01 402.04 79.18 401.37 79.8 400.29L82.83 402.04C81.58 404.2 79.26 405.54 76.77 405.54ZM83.77 398.93L82.99 398.93L82.99 399.7L82.21 399.7L82.21 398.93L81.43 398.93L81.43 398.15L82.21 398.15L82.21 397.37L82.99 397.37L82.99 398.15L83.77 398.15L83.77 398.93ZM85.91 398.15L86.68 398.15L86.68 398.93L85.91 398.93L85.91 399.7L85.13 399.7L85.13 398.93L84.35 398.93L84.35 398.15L85.13 398.15L85.13 397.37L85.91 397.37L85.91 398.15Z" />
			<path id="Layer" class="shp8" d="M859.89 792.66C859.89 792.66 875.53 807.84 885.58 814.73C895.62 821.61 903.24 820.75 902.96 817.29C902.68 813.83 890.76 802.44 888.17 797.49C885.58 792.53 883.65 786.36 879.95 784.09C876.25 781.82 868.04 782.44 865.7 780.03C863.35 777.62 859.89 792.66 859.89 792.66Z" />
			<path id="Layer" class="shp30" d="M846.17 594.87C846.17 594.87 844.59 604.26 846.18 610.08C847.76 615.89 848.17 623.06 850.45 622.06C852.73 621.07 850.41 607.48 851.77 608.29C853.14 609.1 859.76 616.06 860.9 618.21C862.04 620.36 864.77 629.82 867.15 630.28C868.67 630.58 868.76 628.77 868.76 628.77C868.76 628.77 870.46 631.17 871.56 629.6C872.79 627.86 870.48 621.46 870.48 621.46C870.48 621.46 871.31 619.2 871.08 616.94C870.85 614.68 867.54 607.3 865.07 604.16C862.6 601.01 856.54 592.65 856.54 592.65L846.17 594.87Z" />
			<path id="Layer" class="shp8" d="M742.79 585.1C742.79 585.1 757.44 637.58 778.18 670.47C798.92 703.36 812.34 712.68 821.54 718.33C830.74 723.98 910.37 768.66 910.37 768.66C910.37 768.66 915.1 758.25 920.38 754.45C920.38 754.45 880.43 714.12 866.13 704.23C851.83 694.33 836.46 691.91 835.63 687.13C834.8 682.36 806.01 615.39 806.01 615.39L778.59 574.4L742.79 585.1Z" />
			<path id="Layer" class="shp34" d="M807.25 568.28C807.25 568.28 824.93 586.85 822.07 606.76C819.21 626.67 787.09 709.2 787.09 709.2C787.09 709.2 806.19 717.81 826.91 738.13C847.64 758.46 869.63 781.18 869.63 781.18C869.63 781.18 861.77 788.96 859.5 794.39C859.5 794.39 765.52 741.35 757.1 728.68C748.68 716.01 748.3 703.52 759.45 657.72C770.61 611.92 777.52 576.55 777.52 576.55L807.25 568.28Z" />
			<path id="Layer" class="shp35" d="M850.75 523.56C853.74 539.3 859.46 596.36 859.46 596.36L845.98 599.24C845.98 599.24 827.75 530 825.26 523.68C822.77 517.37 803.18 488.03 803.18 488.03C803.18 488.03 803.97 520.24 806.41 533.42C808.84 546.62 815.53 572.61 815.53 572.61C815.53 572.61 802.84 578.66 790.78 581.79C787.06 582.76 783.39 583.45 780.18 583.59C766.6 584.21 746.93 588.83 741.76 590.87C741.76 590.87 726.73 529.51 723.86 517.93C721.01 506.36 713.96 482.08 709.47 478.87C704.97 475.64 657.4 461.17 647.01 455.27C636.6 449.37 599.48 396.87 599.48 396.87L612.29 385.5C612.29 385.5 654.34 427.8 662.56 430.61C670.78 433.44 712.13 447.44 722.26 446.8C725.92 446.57 730.77 445.83 735.73 444.95C744.52 443.38 753.69 441.36 757.41 440.81C763.74 439.88 769.53 438.88 776.02 438.66C783.27 438.4 791.4 439.1 802.08 441.92C821.72 447.13 847.77 507.83 850.75 523.56Z" />
			<path id="Layer" class="shp30" d="M612.28 385.5C612.28 385.5 586.66 357.11 584.07 359.67C581.47 362.22 591.99 371.78 591.33 373.16C590.67 374.54 585.44 379.46 586.15 383.21C586.85 386.97 599.48 396.87 599.48 396.87L612.28 385.5Z" />
			<path id="Layer" class="shp30" d="M767.23 436.49C766.07 431.12 764.98 424.92 764.35 421.16C764.03 419.31 762.22 418.12 760.39 418.56L743.88 422.52C742.3 422.9 741.24 424.39 741.41 426L742.9 440.59C743.07 442.27 741.93 443.8 740.28 444.11C740.25 444.11 740.23 444.12 740.2 444.12C737.86 444.57 736.77 447.3 738.18 449.23C740.78 452.78 745.43 456.86 753.11 457.04C762.6 457.26 770.52 450.5 774.14 443.7C775.34 441.45 773.49 438.76 770.94 438.99C770.86 439 770.77 439.01 770.69 439.02C769.07 439.17 767.58 438.09 767.23 436.49Z" />
			<path id="Layer" class="shp30" d="M726.43 387.69L729.19 415.13L750.78 415.81L754.64 412.02L758.85 407.87L765.43 391.38C765.43 391.38 763.93 379.66 763.41 379.24C763.11 378.99 751.63 378.55 741.96 378.22C734.87 377.98 728.75 377.81 728.75 377.81L726.43 387.69Z" />
			<path id="Layer" class="shp4" d="M712.06 380.86C712.21 382.18 712.57 383.52 713.32 384.77C713.32 384.77 713.32 384.78 713.33 384.78C714.49 386.74 716.57 388.43 720.1 389.28C728.01 391.18 736.26 389.36 741.78 387.61C747.31 385.88 749.5 386.09 751.33 386.89C752.08 387.23 752.35 388.56 752.56 390.21C752.74 391.62 752.89 393.24 753.24 394.72C754.02 397.96 756.17 395.55 756.93 392.51C757.7 389.47 764.63 388.65 763.19 395.68C761.76 402.71 758.32 401.52 756.59 403.23C754.86 404.95 755.04 407.37 751.02 409.85C746.71 412.5 742.82 410.71 741.29 409.55C739.06 407.88 733.29 408.3 731.29 408.5C729.3 408.7 727.19 409.15 727.48 411.02C727.77 412.9 728.53 423.63 730.29 426.17C730.85 426.98 731.57 427.83 732.56 428.6C734.7 430.24 738.14 431.56 744.07 431.44C752.77 431.29 757.71 428.05 761.23 424.14C763.47 421.66 764.99 417.33 766.12 412.8C766.78 410.19 767.3 407.51 767.75 405.08C768.9 398.83 772.21 395.3 772.1 386.79C772.09 386.33 772.08 385.88 772.04 385.39C772.04 385.28 772.04 385.16 772.03 385.05C771.41 375.26 764.62 367.99 759.94 365.13C755.26 362.28 747.7 365.05 744.98 365.21C742.27 365.36 739.47 357.57 729.32 360.61C719.17 363.64 723.25 368.7 720.51 370.99C719.04 372.23 716.88 372.81 715.11 373.71C713.59 374.47 712.36 375.46 712.12 377.3C711.98 378.37 711.91 379.6 712.06 380.86Z" />
			<path id="Layer" class="shp36" d="M815.53 572.61C815.53 572.61 802.84 578.66 790.78 581.79C789.78 571.8 796.06 567.59 790.38 553.19C784 537.04 794.2 527.07 793.72 514.2C793.24 501.33 803.17 488.02 803.17 488.02C803.17 488.02 803.96 520.24 806.4 533.42C808.83 546.61 815.53 572.61 815.53 572.61Z" />
			<path id="Layer" class="shp4" d="M876.72 782.89C876.72 782.89 875.59 785.7 879.79 790.96C884 796.23 888.32 803.57 893.29 810.13C898.26 816.7 901.51 818.71 902.96 817.29C904.41 815.87 894.51 802.93 891.19 799.92C887.87 796.9 884.39 782.25 876.72 782.89Z" />
			<path id="Layer" class="shp36" d="M738.84 444.09C738.84 444.09 742.4 454.39 754.92 453.08C767.45 451.78 771.2 443.44 772.72 438.85L777.84 438.62C777.84 438.62 772.29 456.94 756.09 458.03C747.84 458.58 740.56 460.23 735.73 444.95L738.84 444.09Z" />
			<path id="Layer" class="shp4" d="M399.53 172.49C399.53 172.49 410.75 185.19 422.38 201.77C434.01 218.35 440.83 225.97 445.04 235.6C449.25 245.22 461.28 289.34 461.28 289.34L448.45 294.35C448.45 294.35 422.98 242.42 421.18 240.01C419.37 237.6 395.15 213.75 395.15 213.75L399.53 172.49Z" />
			<path id="Layer" class="shp30" d="M449.36 293.59C449.36 293.59 451.73 304.38 453.49 310.79C455.24 317.19 458.58 332.55 461.38 331.85C464.19 331.14 460.39 315.91 460.66 314.68C460.92 313.46 469.81 311.93 469.99 306.23C470.16 300.52 460.49 288.81 460.49 288.81L449.36 293.59Z" />
			<path id="Layer" class="shp30" d="M330.64 231.09L335.23 228.86C335.23 228.86 345.48 231.09 350.5 232.39C355.51 233.7 360.02 239.01 361.02 240.01C362.02 241.01 355.01 241.62 351.69 240.51C348.39 239.41 332.34 240.01 332.34 240.01L330.64 231.09Z" />
			<path id="Layer" class="shp30" d="M365.44 133.74C365.44 133.74 361.83 131.73 359.22 134.74C356.61 137.75 359.22 143.96 362.33 145.36C362.33 145.36 362.38 162.03 372.46 164.82C381.88 167.42 391.71 164.01 396.12 131.33C396.12 131.33 380.01 129.32 377.13 123.51C377.13 123.51 371.25 131.23 365.44 133.74Z" />
			<path id="Layer" class="shp18" d="M824.81 366.21C808.35 366.21 794.96 352.82 794.96 336.36C794.96 319.9 808.35 306.51 824.81 306.51C841.26 306.51 854.65 319.9 854.65 336.36C854.65 352.82 841.27 366.21 824.81 366.21Z" />
			<path id="Layer" fill-rule="evenodd" class="shp5" d="M824.8 326.56L816 326.56L816.96 337.17L824.8 337.17L824.8 337.18L829.13 337.18L828.72 341.74L824.81 342.79L820.89 341.74L820.64 338.93L817.11 338.93L817.61 344.45L824.82 346.46L824.82 346.44L832 344.45L832.96 333.67L824.8 333.67L820.18 333.67L819.85 330.07L824.82 330.07L833.28 330.07L833.6 326.56L824.82 326.56L824.8 326.56Z" />
			<path id="Layer" class="shp5" d="M490.53 134.62C500.56 124.59 500.56 108.33 490.53 98.3C480.5 88.27 464.24 88.27 454.21 98.3C444.18 108.33 444.18 124.59 454.21 134.62C464.24 144.65 480.5 144.65 490.53 134.62Z" />
			<path id="Layer" fill-rule="evenodd" class="shp0" d="M472.05 108.48L472.05 108.48L465.05 108.48L465.3 111.28L472.05 111.28L472.06 111.28L475.99 111.28L475.73 114.14L472.06 114.14L472.06 114.14L465.55 114.14L465.8 116.93L472.05 116.93L472.05 116.93L475.49 116.93L475.16 120.56L472.05 121.4L472.05 121.4L472.04 121.4L468.93 120.56L468.73 118.33L467.22 118.33L465.93 118.33L466.32 122.72L472.04 124.31L472.06 124.3L472.06 124.3L477.78 122.72L477.82 122.25L478.48 114.89L478.54 114.14L479.05 108.48L472.06 108.48L472.05 108.48Z" />
			<path id="Layer" class="shp37" d="M380.31 120.16C380.31 120.16 392.1 130.7 403.98 125.43" />
			<path id="Layer" class="shp37" d="M387.74 120.16C387.74 120.16 394.38 124.18 401.71 121.38" />
			<path id="Layer" class="shp37" d="M368.01 101.91C368.01 101.91 357.55 105.72 358.15 113.03" />
			<path id="Layer" class="shp7" d="M603.47 215.42L735.49 215.42L732.94 200.74L724.66 197.7L607.19 197.7L603.47 202.78L603.47 215.42Z" />
			<path id="Layer" fill-rule="evenodd" class="shp38" d="M609.66 205.51C609.66 203.44 611.34 201.77 613.4 201.77C615.47 201.77 617.14 203.44 617.14 205.51C617.14 207.58 615.47 209.25 613.4 209.25C611.34 209.25 609.66 207.58 609.66 205.51ZM622.92 205.51C622.92 203.44 624.59 201.77 626.66 201.77C628.72 201.77 630.4 203.44 630.4 205.51C630.4 207.58 628.72 209.25 626.66 209.25C624.59 209.25 622.92 207.58 622.92 205.51ZM643.55 205.51C643.55 207.58 641.87 209.25 639.81 209.25C637.74 209.25 636.07 207.58 636.07 205.51C636.07 203.44 637.74 201.77 639.81 201.77C641.87 201.77 643.55 203.44 643.55 205.51Z" />
			<path id="Layer" class="shp38" d="M691.27 241.96C689.35 241.96 687.53 242.36 685.88 243.08C683.41 234.75 675.7 228.67 666.56 228.67C655.48 228.67 646.49 237.61 646.41 248.68C646.14 248.65 645.87 248.64 645.6 248.64C639.98 248.64 635.43 253.19 635.43 258.81C635.43 264.2 639.63 268.6 644.94 268.95L644.93 268.98L691.27 268.98C698.74 268.98 704.78 262.93 704.78 255.47C704.78 248.01 698.73 241.96 691.27 241.96Z" />
			<path id="Layer" class="shp4" d="M262.97 218.55C260.3 226.56 268.56 236.69 288.61 239.1C308.66 241.5 332.35 240.01 332.35 240.01L335.23 228.85L294.45 215.74C294.45 215.74 325.39 188.91 329.34 181.25C332.55 175.04 332.75 161.08 318.31 162.49C303.87 163.9 266.58 207.73 262.97 218.55Z" />
		</g>
	</g>
</svg>