<svg width="20" height="20" viewBox="0 0 20 20" fill="none" xmlns="http://www.w3.org/2000/svg">
<mask id="mask0" mask-type="alpha" maskUnits="userSpaceOnUse" x="0" y="0" width="20" height="20">
<path d="M0 4C0 1.79086 1.79086 0 4 0H16C18.2091 0 20 1.79086 20 4V12C20 16.4183 16.4183 20 12 20H4C1.79086 20 0 18.2091 0 16V4Z" fill="url(#paint0_linear)"/>
</mask>
<g mask="url(#mask0)">
<path d="M0 4C0 1.79086 1.79086 0 4 0H16C18.2091 0 20 1.79086 20 4V16C20 18.2091 18.2091 20 16 20H4C1.79086 20 0 18.2091 0 16V4Z" fill="url(#paint1_linear)"/>
<path d="M12.5198 9.62861C13.1119 9.35624 13.4823 8.87655 13.3958 8.07742C13.2792 6.98532 12.2351 6.61912 10.917 6.51483L10.9167 5H9.89541L9.89512 6.47499C9.62641 6.47499 9.3525 6.47976 9.07982 6.4847L9.07959 5.0002L8.05923 5.00011L8.05904 6.51457C7.8379 6.51865 7.62073 6.52253 7.40868 6.52253V6.51804L6 6.51753L6.00019 7.50218C6.00019 7.50218 6.75439 7.48937 6.74197 7.5018C7.15548 7.50206 7.2905 7.71891 7.32934 7.90609L7.32965 9.6318V12.0559C7.31145 12.1733 7.23483 12.361 6.94569 12.3614C6.95885 12.3718 6.20277 12.3613 6.20277 12.3613L6.00019 13.4623H7.32902C7.57663 13.4626 7.81991 13.466 8.05859 13.4678L8.05948 14.9997L9.07959 15L9.07931 13.4841C9.35996 13.4893 9.63086 13.4915 9.89547 13.4912L9.89519 15H10.9164L10.917 13.4706C12.6337 13.3815 13.8355 12.991 13.9849 11.5351C14.1053 10.363 13.4945 9.83983 12.5198 9.62861ZM9.10422 7.56864C9.68021 7.56864 11.4917 7.403 11.492 8.48958C11.4917 9.5313 9.68079 9.40961 9.10422 9.40961V7.56864ZM9.10378 12.3688L9.10422 10.339C9.79626 10.3388 11.9669 10.1592 11.9672 11.3535C11.9674 12.4988 9.79626 12.3684 9.10378 12.3688Z" fill="white"/>
</g>
<defs>
<linearGradient id="paint0_linear" x1="1" y1="20" x2="20" y2="4.24683e-07" gradientUnits="userSpaceOnUse">
<stop stop-color="#F09D00"/>
<stop offset="1" stop-color="#F9BC00"/>
</linearGradient>
<linearGradient id="paint1_linear" x1="1" y1="20" x2="20" y2="4.24683e-07" gradientUnits="userSpaceOnUse">
<stop stop-color="#8A2387"/>
<stop offset="1" stop-color="#E94057"/>
</linearGradient>
</defs>
</svg>
