<svg width="20" height="20" viewBox="0 0 20 20" fill="none" xmlns="http://www.w3.org/2000/svg">
<mask id="mask0" mask-type="alpha" maskUnits="userSpaceOnUse" x="0" y="0" width="20" height="20">
<path d="M0 4C0 1.79086 1.79086 0 4 0H16C18.2091 0 20 1.79086 20 4V12C20 16.4183 16.4183 20 12 20H4C1.79086 20 0 18.2091 0 16V4Z" fill="url(#paint0_linear)"/>
</mask>
<g mask="url(#mask0)">
<path d="M0 4C0 1.79086 1.79086 0 4 0H16C18.2091 0 20 1.79086 20 4V16C20 18.2091 18.2091 20 16 20H4C1.79086 20 0 18.2091 0 16V4Z" fill="url(#paint1_linear)"/>
<path fill-rule="evenodd" clip-rule="evenodd" d="M8.69827 14.4483C6.24549 14.4483 4.25 12.4528 4.25 10C4.25 7.54724 6.24549 5.55176 8.69827 5.55176C10.281 5.55176 11.7571 6.40347 12.5504 7.7745L10.6253 8.88849C10.2283 8.20223 9.48981 7.77589 8.69827 7.77589C7.47186 7.77589 6.47414 8.77362 6.47414 10C6.47414 11.2264 7.47186 12.2242 8.69827 12.2242C9.48989 12.2242 10.2284 11.7978 10.6255 11.1114L12.5506 12.2254C11.7572 13.5965 10.2811 14.4483 8.69827 14.4483ZM13.1464 9.75271H12.6521V9.25847H12.1579V9.75271H11.6636V10.2469H12.1579V10.7412H12.6521V10.2469H13.1464V9.75271ZM14.5059 9.75271H15.0002V10.2469H14.5059V10.7412H14.0117V10.2469H13.5174V9.75271H14.0117V9.25847H14.5059V9.75271Z" fill="white"/>
</g>
<defs>
<linearGradient id="paint0_linear" x1="1" y1="20" x2="20" y2="4.24683e-07" gradientUnits="userSpaceOnUse">
<stop stop-color="#F09D00"/>
<stop offset="1" stop-color="#F9BC00"/>
</linearGradient>
<linearGradient id="paint1_linear" x1="1" y1="20" x2="20" y2="4.24683e-07" gradientUnits="userSpaceOnUse">
<stop stop-color="#11998E"/>
<stop offset="1" stop-color="#38EF7D"/>
</linearGradient>
</defs>
</svg>
