<svg width="20" height="20" viewBox="0 0 20 20" fill="none" xmlns="http://www.w3.org/2000/svg">
<mask id="mask0" mask-type="alpha" maskUnits="userSpaceOnUse" x="0" y="0" width="20" height="20">
<path d="M0 4C0 1.79086 1.79086 0 4 0H16C18.2091 0 20 1.79086 20 4V12C20 16.4183 16.4183 20 12 20H4C1.79086 20 0 18.2091 0 16V4Z" fill="url(#paint0_linear)"/>
</mask>
<g mask="url(#mask0)">
<path d="M0 4C0 1.79086 1.79086 0 4 0H16C18.2091 0 20 1.79086 20 4V16C20 18.2091 18.2091 20 16 20H4C1.79086 20 0 18.2091 0 16V4Z" fill="url(#paint1_linear)"/>
<path fill-rule="evenodd" clip-rule="evenodd" d="M9.91685 5.07166H5.60022L6.07058 10.276H9.91685V10.2798H12.0411L11.84 12.5178L9.92068 13.0326L7.99755 12.5178L7.87616 11.1408H6.14645L6.38921 13.8454L9.92451 14.8317V14.8219L13.4446 13.8454L13.9187 8.55764H9.92451H9.91685H7.64857L7.48925 6.79378H9.91685H9.92451H14.0742L14.2336 5.07166H9.92451H9.91685Z" fill="white"/>
</g>
<defs>
<linearGradient id="paint0_linear" x1="1" y1="20" x2="20" y2="4.24683e-07" gradientUnits="userSpaceOnUse">
<stop stop-color="#F09D00"/>
<stop offset="1" stop-color="#F9BC00"/>
</linearGradient>
<linearGradient id="paint1_linear" x1="1" y1="20" x2="20" y2="4.24683e-07" gradientUnits="userSpaceOnUse">
<stop stop-color="#E44D26"/>
<stop offset="1" stop-color="#F16529"/>
</linearGradient>
</defs>
</svg>
