<svg width="20" height="20" viewBox="0 0 20 20" fill="none" xmlns="http://www.w3.org/2000/svg">
<path d="M0 4C0 1.79086 1.79086 0 4 0H16C18.2091 0 20 1.79086 20 4V12C20 16.4183 16.4183 20 12 20H4C1.79086 20 0 18.2091 0 16V4Z" fill="url(#paint0_linear)"/>
<path d="M10.8174 11.5986C11.1536 12.1609 11.591 12.5742 12.3647 12.5742C13.0145 12.5742 13.4297 12.2415 13.4297 11.7817C13.4297 11.2308 13.0032 11.0357 12.2878 10.7152L11.8957 10.5429C10.7639 10.049 10.012 9.43024 10.012 8.12219C10.012 6.91726 10.9083 6 12.309 6C13.3062 6 14.0232 6.35551 14.5398 7.28634L13.3184 8.08962C13.0495 7.59571 12.7594 7.40113 12.309 7.40113C11.8496 7.40113 11.5584 7.69965 11.5584 8.08962C11.5584 8.57159 11.8499 8.76672 12.5228 9.06523L12.9149 9.23729C14.2476 9.82265 15 10.4194 15 11.7611C15 13.2076 13.8907 14 12.4009 14C10.9443 14 10.0033 13.289 9.54279 12.3571L10.8174 11.5986ZM5.27674 11.7378C5.52313 12.1856 5.74727 12.5641 6.28616 12.5641C6.80146 12.5641 7.12654 12.3576 7.12654 11.5546V6.09173H8.69498V11.5763C8.69498 13.2399 7.74279 13.997 6.35292 13.997C5.09711 13.997 4.36985 13.3313 4 12.5295L5.27674 11.7378Z" fill="white"/>
<defs>
<linearGradient id="paint0_linear" x1="1" y1="20" x2="20" y2="4.24683e-07" gradientUnits="userSpaceOnUse">
<stop stop-color="#F09D00"/>
<stop offset="1" stop-color="#F9BC00"/>
</linearGradient>
</defs>
</svg>
