<svg width="18" height="22" viewBox="0 0 18 22" fill="none" xmlns="http://www.w3.org/2000/svg">
<path fill-rule="evenodd" clip-rule="evenodd" d="M13.3503 0C13.3503 0 11.3409 0.00922567 9.89528 1.91432C8.60972 3.60865 8.93688 5.05779 8.93688 5.05779C8.93688 5.05779 10.6798 5.35905 12.2131 3.51675C13.6491 1.7912 13.3503 0 13.3503 0ZM10.2739 5.96507C9.80086 6.15576 9.41216 6.31246 9.12099 6.31246C8.75795 6.31246 8.32004 6.14379 7.81124 5.94781C7.10562 5.67603 6.26364 5.35172 5.29588 5.35192C2.73257 5.35192 0 7.64699 0 12.0217C0 16.4681 3.22827 22 5.78378 22C6.18135 22 6.67379 21.8215 7.21972 21.6237C7.89873 21.3776 8.6605 21.1015 9.42543 21.1015C10.1113 21.1015 10.7062 21.3238 11.2933 21.5431C11.8654 21.7568 12.43 21.9677 13.0642 21.9677C15.8628 21.9677 17.9347 16.136 17.9347 16.136C17.9347 16.136 14.9708 14.9885 14.9708 11.6587C14.9708 8.70687 17.3499 7.4905 17.3499 7.4905C17.3499 7.4905 16.1336 5.29018 13.0412 5.29018C11.948 5.29018 11.0091 5.66869 10.2739 5.96507Z" fill="#0C152E"/>
</svg>
