<svg width="13" height="4" viewBox="0 0 13 4" fill="none" xmlns="http://www.w3.org/2000/svg">
<path d="M2 3C2.55228 3 3 2.55228 3 2C3 1.44772 2.55228 1 2 1C1.44772 1 1 1.44772 1 2C1 2.55228 1.44772 3 2 3Z" stroke="#0C152E" stroke-linecap="round" stroke-linejoin="round"/>
<path d="M11 3C11.5523 3 12 2.55228 12 2C12 1.44772 11.5523 1 11 1C10.4477 1 10 1.44772 10 2C10 2.55228 10.4477 3 11 3Z" stroke="#0C152E" stroke-linecap="round" stroke-linejoin="round"/>
<path d="M6.5 3C7.05228 3 7.5 2.55228 7.5 2C7.5 1.44772 7.05228 1 6.5 1C5.94772 1 5.5 1.44772 5.5 2C5.5 2.55228 5.94772 3 6.5 3Z" stroke="#0C152E" stroke-linecap="round" stroke-linejoin="round"/>
</svg>
