<svg width="17" height="17" viewBox="0 0 17 17" fill="none" xmlns="http://www.w3.org/2000/svg">
<path d="M13.632 13.544L11.367 12.456C10.535 12.018 10.002 11.523 10.002 10.662" stroke="#888E9E" stroke-linecap="round" stroke-linejoin="round"/>
<path d="M7.00016 10.662C6.988 11.066 6.84989 11.4561 6.60515 11.7777C6.36042 12.0994 6.02128 12.3365 5.63516 12.456L3.36816 13.544" stroke="#888E9E" stroke-linecap="round" stroke-linejoin="round"/>
<path d="M8.5 11C10.433 11 12 9.433 12 7.5C12 5.567 10.433 4 8.5 4C6.567 4 5 5.567 5 7.5C5 9.433 6.567 11 8.5 11Z" stroke="#888E9E" stroke-linecap="round" stroke-linejoin="round"/>
<path d="M15 1H2C1.44772 1 1 1.44772 1 2V15C1 15.5523 1.44772 16 2 16H15C15.5523 16 16 15.5523 16 15V2C16 1.44772 15.5523 1 15 1Z" stroke="#888E9E" stroke-linecap="round" stroke-linejoin="round"/>
</svg>
