<svg width="19" height="22" viewBox="0 0 19 22" fill="none" xmlns="http://www.w3.org/2000/svg">
<path fill-rule="evenodd" clip-rule="evenodd" d="M14.2672 14.4151C13.9851 14.2477 13.6839 14.1148 13.3702 14.0193C13.3821 13.0357 13.2512 12.0555 12.9817 11.1094C12.3668 9.56883 11.6632 8.06521 10.8743 6.60608L10.7873 6.58593C10.6846 6.68748 10.5664 6.77221 10.4373 6.83697C10.2906 6.91138 10.1354 7.02386 9.9667 7.14607C9.55382 7.44523 9.06047 7.80268 8.41518 7.80268C7.74872 7.80268 7.39212 7.35833 7.11781 7.01652C7.01803 6.89218 6.92913 6.78141 6.84017 6.71053C6.9379 7.64881 6.71157 8.59228 6.19881 9.3841C5.32143 10.7634 4.67263 12.2755 4.27747 13.8617C3.96062 13.6766 3.60082 13.5778 3.23388 13.5749C3.12956 13.5751 3.0254 13.5833 2.92236 13.5997C2.85116 13.613 2.7808 13.6304 2.71163 13.6519C2.82373 13.3635 2.99383 13.0412 3.17211 12.7034C3.40331 12.2654 3.64826 11.8013 3.79828 11.3513C4.11765 10.4734 4.56536 9.64779 5.12682 8.90125C5.33077 8.61683 5.50812 8.42542 5.6581 8.26354C5.92653 7.97381 6.1073 7.7787 6.19606 7.31433V3.1299C6.21023 2.29495 6.55186 1.49898 7.14733 0.91353C7.7428 0.328076 8.54444 0 9.37951 0C10.2146 0 11.0162 0.328076 11.6117 0.91353C12.2072 1.49898 12.5488 2.29495 12.563 3.1299V6.00229C12.563 6.95935 13.6974 8.1967 14.5507 9.12739L14.5508 9.12744L14.5524 9.12922C14.6216 9.2047 14.6889 9.27816 14.7537 9.34928C15.6839 10.4836 16.2699 11.8606 16.4423 13.3175C16.4729 13.6418 16.4796 13.968 16.4624 14.2933C16.3414 14.2724 16.2188 14.2617 16.096 14.2612C15.7342 14.2738 15.3747 14.3236 15.023 14.4096C14.827 14.4509 14.5897 14.5003 14.4431 14.5141C14.4091 14.4965 14.3748 14.4767 14.3395 14.4563C14.3159 14.4427 14.2918 14.4288 14.2672 14.4151ZM7.76648 4.91472C7.90345 4.85412 8.04662 4.80865 8.19345 4.77912C8.23552 4.62029 8.25008 4.45543 8.23651 4.29168C8.19162 3.7566 7.88743 3.34796 7.55667 3.37545C7.22591 3.40294 6.99318 3.85739 7.03808 4.3888C7.0517 4.66975 7.16246 4.93726 7.35143 5.14561C7.46026 5.0697 7.57554 5.00348 7.69594 4.9477L7.76648 4.91472ZM10.1368 5.12912C10.2863 4.9122 10.3746 4.65899 10.3924 4.39613C10.4474 3.79508 10.178 3.29116 9.80052 3.25909C9.42303 3.22702 9.0767 3.68697 9.0263 4.28618C9.01276 4.451 9.0245 4.61693 9.06112 4.7782C9.27315 4.80639 9.48146 4.8577 9.68233 4.93121H9.69149C9.77395 4.9587 9.85091 4.98985 9.92238 5.02283L9.96728 5.04482C10.0268 5.07323 10.0846 5.10163 10.1368 5.12912ZM3.1467 14.9604C3.5755 14.888 3.99788 15.314 4.30849 15.785C4.89159 16.8065 5.53246 17.794 6.22799 18.7426C6.58207 19.0465 6.81935 19.4641 6.89909 19.9239C6.97884 20.3836 6.89609 20.8568 6.66504 21.2622C6.08306 22.2068 4.98355 21.7876 4.21948 21.4962C4.01641 21.4188 3.83703 21.3504 3.69736 21.319C3.03217 21.1697 1.09984 20.6868 0.582168 20.5027C0.0644966 20.3185 -0.0289589 20.0079 0.0067742 19.7321C0.0209541 19.6227 0.0781301 19.5079 0.145552 19.3725C0.248032 19.1668 0.374184 18.9136 0.409 18.5593C0.429565 18.3501 0.404774 18.0591 0.378919 17.7556C0.332204 17.2073 0.282018 16.6182 0.489629 16.397C0.667618 16.2074 1.06969 16.1855 1.44066 16.1653C1.74188 16.1489 2.02259 16.1336 2.14618 16.0305C2.246 15.9473 2.34847 15.7936 2.45892 15.6279C2.65361 15.3358 2.87312 15.0066 3.1467 14.9604ZM8.88145 19.8052C8.67763 19.8051 8.47395 19.7944 8.27124 19.7732C8.33094 20.0934 8.33713 20.4212 8.28957 20.7435C9.07935 20.6982 9.87164 20.7264 10.6562 20.8278C10.5925 20.3306 10.6179 19.8261 10.7313 19.338C10.1639 19.647 9.52759 19.8077 8.88145 19.8052ZM16.7869 16.878C17.0008 17.3878 17.3989 17.7984 17.9019 18.0279C18.3857 18.3036 18.4086 18.661 18.2263 18.9716C17.7919 19.4001 17.2699 19.7295 16.6961 19.9373C16.0612 20.2695 15.4829 20.7003 14.9828 21.2136C14.7192 21.5402 14.3522 21.7672 13.9423 21.8571C13.5324 21.9471 13.104 21.8946 12.7279 21.7084C11.6941 21.0189 12.0006 19.8829 12.1609 19.2891C12.1878 19.1893 12.2106 19.1048 12.2222 19.0403C12.3235 18.262 12.381 17.4786 12.3944 16.6938C12.392 16.6084 12.3829 16.5064 12.3732 16.3972C12.3382 16.006 12.2949 15.5223 12.5227 15.379C12.8295 15.1835 13.2257 15.4057 13.5973 15.6142C13.8195 15.7388 14.0329 15.8585 14.2132 15.8811C14.5203 15.9192 14.9231 15.8352 15.3063 15.7552C15.7803 15.6563 16.2243 15.5637 16.4204 15.7162C16.6708 15.911 16.6987 16.1817 16.7299 16.4853C16.7429 16.6115 16.7565 16.7434 16.7869 16.878Z" fill="#0C152E"/>
</svg>
