<svg width="13" height="17" viewBox="0 0 13 17" fill="none" xmlns="http://www.w3.org/2000/svg">
<path d="M12 6.5C12 11 6.5 16 6.5 16C6.5 16 1 11 1 6.5C1 5.04131 1.57946 3.64236 2.61091 2.61091C3.64236 1.57946 5.04131 1 6.5 1C7.95869 1 9.35764 1.57946 10.3891 2.61091C11.4205 3.64236 12 5.04131 12 6.5V6.5Z" stroke="#0C152E" stroke-width="1.5" stroke-miterlimit="10" stroke-linecap="round" stroke-linejoin="round"/>
<path d="M6.5 9C7.88071 9 9 7.88071 9 6.5C9 5.11929 7.88071 4 6.5 4C5.11929 4 4 5.11929 4 6.5C4 7.88071 5.11929 9 6.5 9Z" stroke="#0C152E" stroke-width="1.5" stroke-miterlimit="10" stroke-linecap="round" stroke-linejoin="round"/>
</svg>
