<svg width="24" height="24" viewBox="0 0 24 24" fill="none" xmlns="http://www.w3.org/2000/svg">
<path d="M12 14C9.791 14 8 12.5672 8 10.8V9.2C8 7.4328 9.791 6 12 6C14.209 6 16 7.4328 16 9.2V10.8C16 12.5672 14.209 14 12 14Z" stroke="#DD3D5E" stroke-width="1.5" stroke-miterlimit="10" stroke-linecap="round" stroke-linejoin="round"/>
<path d="M18.1019 21.15C17.0019 18.6569 15.3319 17 13.4999 17H10.4999C8.6529 17 7.0009 18.6088 5.8999 21.1365" stroke="#DD3D5E" stroke-width="1.5" stroke-miterlimit="10" stroke-linecap="round" stroke-linejoin="round"/>
<path d="M12 23C18.0751 23 23 18.0751 23 12C23 5.92487 18.0751 1 12 1C5.92487 1 1 5.92487 1 12C1 18.0751 5.92487 23 12 23Z" stroke="#DD3D5E" stroke-width="1.5" stroke-miterlimit="10" stroke-linecap="round" stroke-linejoin="round"/>
</svg>
