<svg width="15" height="16" viewBox="0 0 15 16" fill="none" xmlns="http://www.w3.org/2000/svg">
<path d="M5.62012 6.67495L9.38112 4.32495" stroke="#888E9E" stroke-miterlimit="10" stroke-linecap="round" stroke-linejoin="round"/>
<path d="M5.62012 9.32495L9.38112 11.675" stroke="#888E9E" stroke-miterlimit="10" stroke-linecap="round" stroke-linejoin="round"/>
<path d="M11.5 5.5C12.8807 5.5 14 4.38071 14 3C14 1.61929 12.8807 0.5 11.5 0.5C10.1193 0.5 9 1.61929 9 3C9 4.38071 10.1193 5.5 11.5 5.5Z" stroke="#888E9E" stroke-miterlimit="10" stroke-linecap="round" stroke-linejoin="round"/>
<path d="M11.5 15.5C12.8807 15.5 14 14.3807 14 13C14 11.6193 12.8807 10.5 11.5 10.5C10.1193 10.5 9 11.6193 9 13C9 14.3807 10.1193 15.5 11.5 15.5Z" stroke="#888E9E" stroke-miterlimit="10" stroke-linecap="round" stroke-linejoin="round"/>
<path d="M3.5 10.5C4.88071 10.5 6 9.38071 6 8C6 6.61929 4.88071 5.5 3.5 5.5C2.11929 5.5 1 6.61929 1 8C1 9.38071 2.11929 10.5 3.5 10.5Z" stroke="#888E9E" stroke-miterlimit="10" stroke-linecap="round" stroke-linejoin="round"/>
</svg>
