<svg width="18" height="18" viewBox="0 0 18 18" fill="none" xmlns="http://www.w3.org/2000/svg">
<path d="M8.99994 11.6667C11.0618 11.6667 12.7333 9.9952 12.7333 7.93333C12.7333 5.87147 11.0618 4.2 8.99994 4.2C6.93807 4.2 5.2666 5.87147 5.2666 7.93333C5.2666 9.9952 6.93807 11.6667 8.99994 11.6667Z" stroke="#888E9E" stroke-linecap="round" stroke-linejoin="round"/>
<path d="M7.39998 11.3061C7.387 11.737 7.23969 12.1531 6.97864 12.4962C6.71758 12.8393 6.35584 13.0923 5.94398 13.2197L3.52585 14.3803C3.42378 14.4231 3.32533 14.4741 3.23145 14.5328" stroke="#888E9E" stroke-linecap="round" stroke-linejoin="round"/>
<path d="M14.7685 14.5338C14.6746 14.4752 14.5761 14.4242 14.4741 14.3813L12.0581 13.2208C11.1706 12.7536 10.6021 12.2256 10.6021 11.3072" stroke="#888E9E" stroke-linecap="round" stroke-linejoin="round"/>
<path d="M9 17C13.4183 17 17 13.4183 17 9C17 4.58172 13.4183 1 9 1C4.58172 1 1 4.58172 1 9C1 13.4183 4.58172 17 9 17Z" stroke="#888E9E" stroke-linecap="round" stroke-linejoin="round"/>
</svg>
